# xmcd
#
# Track frame offsets:
#       150
#       10956
#       23882
#       38696
#       49458
#       62999
#       74321
#       85257
#       98187
#       111369
#       127442
#       143648
#       156109
#       178272
#       195461
#       214985
#       228869
#       249260
#       266343
#       279794
#       295227
#       312096
#
# Disc length: 4402 seconds
#
# Revision: 0
# Processed by: cddbd v1.5.1PL2 Copyright (c) Steve Scherf et al.
# Submitted via: CD-DA_X-Tractor v0.21
#
DISCID=42113016
DTITLE=Delbert McClinton - The Definitive Collection
DYEAR=1900
DGENRE=
TTITLE0=Hey Baby
TTITLE1=I Received A Letter
TTITLE2=Honky Tonkin' (I Guess I Done Me Some)
TTITLE3=Victim Of Life's Circumstances
TTITLE4=Two More Bottles Of Wine
TTITLE5=Special Love Song
TTITLE6=Lipstick, Powder And Paint
TTITLE7=Pledging My Love
TTITLE8=I'm Dying As Fast As I Can
TTITLE9=Love Rustler
TTITLE10=Under Suspicion
TTITLE11=Ain't What You Eat But How You Chew It
TTITLE12=Take It Easy
TTITLE13="B" Movie Boxcar Blues
TTITLE14=A Mess Of Blues
TTITLE15=Plain Old Makin' Love
TTITLE16=The Jealous Kind
TTITLE17=Giving It Up For Your Love
TTITLE18=Sandy Beaches
TTITLE19=Heartbreak Radio
TTITLE20=Maybe Someday Baby
TTITLE21=You Were Never Mine
EXTD=
EXTT0=
EXTT1=
EXTT2=
EXTT3=
EXTT4=
EXTT5=
EXTT6=
EXTT7=
EXTT8=
EXTT9=
EXTT10=
EXTT11=
EXTT12=
EXTT13=
EXTT14=
EXTT15=
EXTT16=
EXTT17=
EXTT18=
EXTT19=
EXTT20=
EXTT21=
PLAYORDER=
